<svg width="13215" height="6847" viewBox="0 0 13215 6847" fill="none" xmlns="http://www.w3.org/2000/svg">
<g clip-path="url(#clip0_4_66)">
<rect width="13215" height="6847" fill="white"/>
<rect x="-2696" y="1557" width="3795" height="3001" rx="273" stroke="#E2E4FF" stroke-width="20"/>
<rect x="6614" y="-1247" width="2343" height="2662" rx="273" stroke="#E2E4FF" stroke-width="20"/>
<g filter="url(#filter0_d_4_66)">
<rect x="366" y="4880" width="3139" height="2517" rx="273" stroke="#E2E4FF" stroke-width="20" shape-rendering="crispEdges"/>
</g>
<rect x="-1905" y="2738" width="3810" height="3165" rx="273" stroke="#F6F8FF" stroke-width="20"/>
<circle cx="1109" cy="3659" r="140" fill="#7796FF"/>
<circle cx="8967" cy="562" r="140" fill="#7796FF"/>
<path d="M6210.8 5914H8623V7362H5780V6344.8C5780 6274.37 5780.01 6222.07 5782.96 6180.48C5785.9 6138.97 5791.74 6108.89 5803.03 6082.8C5831.31 6017.44 5883.44 5965.31 5948.8 5937.03C5974.89 5925.74 6004.97 5919.9 6046.48 5916.96C6088.07 5914.01 6140.37 5914 6210.8 5914Z" stroke="#E1E5FC" stroke-width="20"/>
<path d="M8903 4208H11285C11439.6 4208 11565 4333.36 11565 4488V5632C11565 5786.64 11439.6 5912 11285 5912H8623V4488C8623 4333.36 8748.36 4208 8903 4208Z" stroke="#E1E5FC" stroke-width="20"/>
<path d="M12523 4303H14905C15059.6 4303 15185 4428.36 15185 4583V5727C15185 5881.64 15059.6 6007 14905 6007H12523C12368.4 6007 12243 5881.64 12243 5727V4583C12243 4428.36 12368.4 4303 12523 4303Z" stroke="#E1E5FC" stroke-width="20"/>
<path d="M12223 2607V2639.61L12190.6 2476.13C12211.3 2515.19 12223 2559.73 12223 2607ZM12065.9 2355.36C12108.4 2376.13 12144.8 2407.33 12171.8 2445.61L12065.9 2355.36Z" stroke="#E1E5FC" stroke-width="20"/>
<path d="M10904 -499H13781C13935.6 -499 14061 -373.64 14061 -219V2027C14061 2181.64 13935.6 2307 13781 2307H10904C10749.4 2307 10624 2181.64 10624 2027V-219C10624 -373.64 10749.4 -499 10904 -499Z" stroke="#E1E5FC" stroke-width="20"/>
<line x1="12236" y1="4722.06" x2="12223" y2="2580.06" stroke="#E1E5FC" stroke-width="20"/>
<rect x="12245" y="3870" width="1567" height="1161" fill="white"/>
<rect x="12040" y="1156" width="1720" height="1161" fill="white"/>
<circle cx="11951" cy="2317" r="140" fill="#7796FF"/>
</g>
<defs>
<filter id="filter0_d_4_66" x="352" y="4870" width="3167" height="2545" filterUnits="userSpaceOnUse" color-interpolation-filters="sRGB">
<feFlood flood-opacity="0" result="BackgroundImageFix"/>
<feColorMatrix in="SourceAlpha" type="matrix" values="0 0 0 0 0 0 0 0 0 0 0 0 0 0 0 0 0 0 127 0" result="hardAlpha"/>
<feOffset dy="4"/>
<feGaussianBlur stdDeviation="2"/>
<feComposite in2="hardAlpha" operator="out"/>
<feColorMatrix type="matrix" values="0 0 0 0 0 0 0 0 0 0 0 0 0 0 0 0 0 0 0.25 0"/>
<feBlend mode="normal" in2="BackgroundImageFix" result="effect1_dropShadow_4_66"/>
<feBlend mode="normal" in="SourceGraphic" in2="effect1_dropShadow_4_66" result="shape"/>
</filter>
<clipPath id="clip0_4_66">
<rect width="13215" height="6847" fill="white"/>
</clipPath>
</defs>
</svg>
